<?xml version="1.0" encoding="UTF-8"?>
<svg id="_レイヤー_1" data-name="レイヤー 1" xmlns="http://www.w3.org/2000/svg" viewBox="0 0 110.85 23.63">
  <defs>
    <style>
      .cls-1 {
        fill: #8fc31f;
      }

      .cls-1, .cls-2 {
        stroke-width: 0px;
      }

      .cls-2 {
        fill: #fff;
      }
    </style>
  </defs>
  <g>
    <path class="cls-1" d="M16.7,5.47l-.23-.34c-.2-.3-.12-.7.18-.89l2.16-2.08c.3-.2.7-.12.89.18l.82,1.23c.2.3.12.7-.18.89l-2.75,1.19c-.3.2-.7.12-.89-.18Z"/>
    <g>
      <path class="cls-1" d="M14.86,4.24h-.41c-.36,0-.65-.29-.65-.65l-.54-2.95c0-.36.29-.65.65-.65h1.48c.36,0,.65.29.65.65l-.54,2.95c0,.36-.29.65-.65.65Z"/>
      <path class="cls-2" d="M9,23.61l.08.02.27-.02,1.4-.02.24-.04,6.92-3.77.14-.13.44-.72.06-.22-.02-7.26,1.57-.98.21-.35.02-.06-.02-.69-.03-.07-.23-.27-2.28-1.28-7.07-3.92-.19-.05h-.87s-.19.04-.19.04L.17,8.96l-.06.07-.11.39v.09s.84,1.38.84,1.38l.08.06.41.11h.1s.51-.29.51-.29l.02,3.65.04.08.31.29,1.71.79.15-.03.29-.28.04-.08-.02-5.82,5.6-3.11,6.41,3.55-7.11,3.88-.17.14-.39.74-.02.36v5.63s-5.96-3.39-5.96-3.39l-.2-.09-.1.02-.39.19v.03s-.01,2.09-.01,2.09l.04.15.57.44,6.29,3.63ZM16.02,12.94v5.1s-4.72,2.61-4.72,2.61v-5.1"/>
    </g>
  </g>
  <g>
    <g>
      <path class="cls-2" d="M29.14,15.95c.18.48.35,1.01.52,1.57,1.71-.17,3.12-.47,4.21-.89,1.09-.43,1.94-1.09,2.51-1.97.57-.88.87-2.08.87-3.59,0-.47-.03-.96-.08-1.44-.05-.47-.14-1.11-.27-1.89h-3.02c.18.75.32,1.43.41,2.02.1.64.15,1.12.15,1.44,0,.79-.15,1.42-.44,1.89-.3.47-.86.83-1.67,1.06-.79.23-1.96.34-3.47.34h-.33c.24.51.45.99.62,1.45h0ZM28.19,13.43h2.83v-5.65h-2.83v5.65Z"/>
      <polygon class="cls-2" points="40.32 10.59 46.62 10.59 46.62 13.83 40.21 13.83 40.21 16.71 46.58 16.71 46.58 16.99 49.42 16.99 49.42 7.9 40.32 7.9 40.32 10.59"/>
      <path class="cls-2" d="M52.21,7.86v9.4h2.88v-.58h3.87v.58h2.88V7.86h-9.62ZM59.07,14.08h-4.11v-3.64h4.11v3.64Z"/>
      <path class="cls-2" d="M65.07,17.38h2.03v-2.3l.21.26c.21.26.39.55.54.86.13.27.28.62.45,1.04.59-.43,1.13-.93,1.62-1.47l.2-.23v1.74h2.01v-2.01l.21.29c.39.54.9,1.08,1.49,1.59.19-1.11.42-2.02.68-2.73-.43-.12-.81-.25-1.12-.39-.35-.16-.69-.37-1.02-.63l-.26-.21h2.12v-2.14h-2.1v-.82h2.11v-2.02h-2.11v-.86h-2.01v.86h-.54v-.13c.03-.16.03-.29.03-.4,0-.07,0-.13,0-.18l-1.36-.1c-.03.82-.13,1.69-.3,2.62l-.23-.02v-1.4h-.63v-1.17h-2.03v1.17h-.87v2.39h.87v.29c-.22.38-.43.71-.65.98-.21.26-.44.48-.68.67.25.91.43,1.98.54,3.18.22-.47.4-1,.56-1.6l.23-.89v3.76ZM67.11,15.06v-2.85l.4,1.92.61-1.75-.13-.14c-.11-.12-.21-.23-.29-.33-.08-.09-.15-.18-.21-.25-.12-.16-.24-.3-.36-.43l-.03-.03v-.23h.68l-.02.11c.09,0,.19.01.32.02h.11v2.07h1.96l-.22.2c-.35.32-.74.61-1.16.86-.36.21-.8.43-1.29.65l-.04.1-.02-.08c-.05.02-.11.05-.16.07l-.16.07ZM70.13,11.04h-.93l.14-.82h.79v.82Z"/>
      <g>
        <path class="cls-2" d="M82.56,14.63c0,.47.04,1.14.11,2-2.08.39-4.21.66-6.4.81-.02-.61-.06-1.14-.1-1.59-.04-.45-.12-.88-.23-1.31.64,0,1.27-.01,1.89-.04v-1.09h-1.48v-2.39h5.7v2.39h-1.49v.9c.64-.05,1.32-.12,2.02-.2,0,.12-.01.28-.01.5Z"/>
        <path class="cls-2" d="M76.26,10.34h6.11v.11c.09.95.19,1.77.31,2.43.12.66.26,1.25.42,1.75.2.63.46,1.15.76,1.56.3.4.62.69.95.87.32.18.63.26.92.26.19,0,.34-.04.42-.11.09-.07.15-.21.19-.4.04-.22.06-.54.06-.97,0-.14-.01-.69-.04-1.73l-.03-.79c-.2-.09-.4-.21-.6-.36-.13-.1-.26-.21-.37-.32,0,.11.01.24.02.4l.02.47c0,.08,0,.24-.14.24-.08,0-.13-.07-.21-.22-.06-.11-.12-.27-.19-.47-.19-.59-.34-1.46-.45-2.59v-.13s1.86,0,1.86,0v-2.41h-.52l-.03-.03c-.24-.22-.48-.41-.72-.55l-.27.58h-.49l-.02-.62h-2.06l.03.62h-5.95v2.41Z"/>
      </g>
      <path class="cls-2" d="M97.11,16.92l.03.02c.13.08.34.19.63.35.08-.33.17-.66.27-.96.12-.34.28-.76.48-1.23.02-.06.04-.11.06-.16-.8-.23-1.44-.51-1.92-.83l-.31-.21h1.83v-1.58h-9.34v1.58h1.58l-.5.98-1.38-.03c.11.44.19.84.24,1.2.06.37.1.78.15,1.23,2.17-.13,4.91-.25,8.15-.35h.03ZM94.8,14.88h-2.45l.49-.98h2.68l-1.13.46.41.52ZM90.67,11.8h5.67v-.82l.16.05c.68.24,1.36.41,2.02.51.06-.83.16-1.72.3-2.64-.72,0-1.43-.07-2.12-.22-.73-.15-1.44-.38-2.08-.67l-.1-.05.04-.1c.07-.17.13-.36.18-.56h-2.48c-.04.24-.14.45-.29.61-.16.18-.41.34-.76.5-.38.16-.83.29-1.34.37-.5.08-.97.13-1.41.13-.08,0-.16,0-.22,0,.05.39.1.83.14,1.31.04.5.07.95.08,1.33.66-.05,1.35-.21,2.04-.48l.16-.06v.78ZM92.11,10.28l.32-.21c.26-.17.54-.39.83-.65l.07-.06.08.06c.23.17.56.39,1,.66l.36.22"/>
      <path class="cls-2" d="M101.74,17.32h2.11v-4.32l.62,1.8.06-.11h0l.88-1.76-.58-.47c-.09-.07-.2-.15-.31-.25-.11-.09-.23-.18-.36-.28l-.08-.06.05-.09c.19-.33.35-.64.48-.94v-2.53h-.76v-.96h-2.11v.96h-1.17v2.42h1.77l-.12.18c-.29.44-.63.86-1.01,1.25-.36.37-.71.68-1.05.92.17.47.3.95.37,1.44.07.46.13.98.18,1.56.3-.29.58-.58.84-.85l.2-.21v2.29ZM104.69,17.24h6.16v-2.55h-1.74v-3.17h1.61v-2.33h-1.61v-1.78h-2.34v1.78h-1.78v2.33h1.78v3.17h-2.08v2.55Z"/>
    </g>
    <path class="cls-2" d="M48.83,5.51c0,.63-.06,1.24-.19,1.84l-.94-.16c.13-.58.2-1.2.2-1.84l.93.16Z"/>
    <path class="cls-2" d="M50.06,5.71c0,.63-.06,1.24-.19,1.84l-.94-.16c.13-.58.19-1.2.2-1.84l.93.16Z"/>
  </g>
</svg>