<?xml version="1.0" encoding="UTF-8"?>
<svg id="_レイヤー_1" data-name="レイヤー 1" xmlns="http://www.w3.org/2000/svg" viewBox="0 0 111.12 23.76">
  <defs>
    <style>
      .cls-1 {
        fill: #8fc31f;
      }

      .cls-1, .cls-2 {
        stroke-width: 0px;
      }

      .cls-2 {
        fill: #137439;
      }
    </style>
  </defs>
  <g>
    <path class="cls-2" d="M28.22,8.05h3.06v5.88h-3.06v-5.88ZM29.18,16.37c-.19-.5-.42-1.04-.69-1.61h.52c1.5,0,2.65-.11,3.43-.34.79-.23,1.32-.56,1.6-1.01.28-.45.42-1.05.42-1.82,0-.32-.05-.79-.14-1.43-.1-.63-.24-1.35-.44-2.16h3.27c.13.84.23,1.51.28,2,.06.49.08.98.08,1.45,0,1.53-.29,2.75-.88,3.65s-1.45,1.57-2.57,2.01c-1.12.44-2.57.74-4.34.91-.18-.6-.36-1.15-.55-1.66Z"/>
    <path class="cls-2" d="M46.65,11.09h-6.29v-2.93h9.33v9.33h-3.07v-.28h-6.37v-3.12h6.4v-3ZM48.98,5.89c0,.63-.06,1.24-.19,1.84l-.94-.16c.13-.58.2-1.2.2-1.84l.93.16ZM50.21,6.09c0,.63-.06,1.24-.19,1.84l-.94-.16c.13-.58.19-1.2.2-1.84l.93.16Z"/>
    <path class="cls-2" d="M52.36,8.24h9.62v9.4h-2.88v-.58h-3.87v.58h-2.88v-9.4ZM55.23,14.34h3.87v-3.41h-3.87v3.41Z"/>
    <path class="cls-2" d="M72.61,13.68c.32.26.66.46,1,.62.34.16.75.29,1.23.42-.29.75-.54,1.76-.75,3.03-.68-.56-1.24-1.14-1.67-1.74v1.77h-2.25v-1.55c-.53.59-1.12,1.12-1.76,1.58-.18-.48-.35-.87-.5-1.17-.15-.3-.32-.58-.53-.84v2.08h-2.27v-2.96c-.2.77-.45,1.43-.75,1.99-.11-1.41-.31-2.62-.6-3.65.27-.19.51-.43.72-.7.22-.27.43-.59.63-.96v-.12h-.87v-2.63h.87v-1.17h2.27v1.17h.63v1.51c.17-.96.27-1.87.3-2.72l1.59.12c0,.08-.01.18-.01.29s0,.25-.02.41h.3v-.86h2.25v.86h2.11v2.26h-2.11v.58h2.1v2.38h-1.9ZM67.38,11.47v.07c.12.13.24.27.35.42.07.07.14.15.22.25.08.1.17.2.28.32v-.93c-.21-.02-.36-.03-.45-.03l.02-.11h-.42ZM67.38,15.26c.58-.25,1.08-.49,1.49-.74s.79-.52,1.14-.84h-1.78v-.44l-.6,1.7-.25-1.22v1.54ZM70.16,11.3v-.58h-.57l-.1.58h.67Z"/>
    <path class="cls-2" d="M82.72,15c0,.47.04,1.14.11,2-2.08.39-4.21.66-6.4.81-.02-.61-.06-1.14-.1-1.59-.04-.45-.12-.88-.23-1.31.64,0,1.27-.01,1.89-.04v-1.09h-1.48v-2.39h5.7v2.39h-1.49v.9c.64-.05,1.32-.12,2.02-.2,0,.12-.01.28-.01.5ZM86.63,14.49c.03,1.01.04,1.59.04,1.74,0,.43-.02.76-.07.99-.04.23-.12.38-.23.47-.11.09-.28.13-.5.13-.31,0-.64-.09-.98-.28s-.67-.49-.98-.9c-.31-.42-.57-.95-.78-1.59-.16-.51-.3-1.1-.43-1.77s-.22-1.48-.3-2.44h-6.12v-2.64h5.94l-.03-.62h2.3l.02.62h.3l.29-.62c.29.15.57.36.85.62h.59v2.64h-1.86c.11,1.12.26,1.98.44,2.56.07.19.13.34.18.45s.09.16.1.16.02-.04.02-.12l-.02-.46c-.03-.51-.04-.76-.04-.73.17.2.36.39.58.55.22.16.43.29.65.38l.03.86Z"/>
    <path class="cls-2" d="M90.7,12.3v-.73c-.75.29-1.49.46-2.2.49,0-.42-.03-.9-.08-1.45s-.1-1.03-.16-1.45c.07,0,.19.01.35.01.43,0,.89-.04,1.39-.13.5-.08.93-.21,1.31-.36.33-.15.57-.31.72-.47.15-.16.24-.38.27-.64h2.73c-.06.26-.13.5-.22.72.64.29,1.33.51,2.06.66.73.15,1.47.22,2.23.21-.16,1.02-.27,1.98-.33,2.89-.71-.1-1.43-.27-2.17-.53v.77h-5.91ZM98.44,14.39h-1.57c.49.34,1.16.62,2.01.85-.03.06-.07.16-.11.28-.2.48-.36.89-.48,1.23-.12.34-.22.71-.3,1.09-.37-.19-.63-.34-.77-.42-3.31.11-6.06.23-8.26.36-.04-.5-.1-.94-.15-1.33s-.15-.84-.28-1.33l1.46.03.38-.74h-1.5v-1.82h9.58v1.82ZM94.49,10.55c-.43-.27-.77-.49-1.01-.66-.3.27-.58.49-.84.66h1.85ZM94.36,14.69l.72-.29h-2.01l-.38.74h2.02l-.35-.45Z"/>
    <path class="cls-2" d="M109.38,14.95h1.74v2.79h-6.39v-2.5l-.12.24-.49-1.41v3.74h-2.34v-2.11c-.31.33-.65.67-1.02,1.02-.05-.68-.12-1.28-.2-1.8s-.21-1.02-.4-1.51c.36-.25.73-.57,1.11-.96.38-.39.71-.8,1-1.23h-1.67v-2.65h1.17v-.96h2.34v.96h.76v2.67c-.13.3-.3.62-.5.97.13.1.25.19.36.29s.21.17.31.25l.65.53-.84,1.67h1.94v-2.93h-1.78v-2.56h1.78v-1.78h2.58v1.78h1.61v2.56h-1.61v2.93Z"/>
  </g>
  <g>
    <path class="cls-1" d="M16.84,5.47l-.23-.34c-.2-.3-.12-.7.18-.89l2.15-2.08c.3-.2.7-.12.89.18l.82,1.23c.2.3.12.7-.18.89l-2.75,1.19c-.3.2-.7.12-.89-.18Z"/>
    <g>
      <path class="cls-1" d="M14.99,4.24h-.41c-.36,0-.64-.29-.64-.64l-.54-2.95c0-.36.29-.64.64-.64h1.48c.36,0,.64.29.64.64l-.54,2.95c0,.36-.29.64-.64.64Z"/>
      <path class="cls-2" d="M9.21,23.76l-.12-.03-6.32-3.65-.19-.14-.42-.34-.05-.21v-2.13s.05-.1.05-.1l.45-.22.17-.04.23.11.08.03,5.69,3.25v-5.39s.02-.39.02-.39l.42-.79.22-.17,6.87-3.75-6.11-3.39-5.45,3.03.02,5.76-.06.14-.34.33-.24.04-1.77-.81-.34-.33-.06-.14-.02-3.43-.32.18-.16.02-.47-.12-.12-.09L.02,9.56l-.02-.15.13-.45.09-.12L9.55,3.67l.23-.05h.91s.22.07.22.07l7.08,3.93h.01s2.29,1.29,2.29,1.29l.26.31.05.12.02.74-.03.1-.23.38-.07.07-1.48.91v7.19s0,.05,0,.05l-.07.21-.46.76-.17.15-6.95,3.79-.28.04-1.39.02-.29.02ZM11.57,15.62v4.77s4.45-2.45,4.45-2.45v-4.77s-4.45,2.45-4.45,2.45Z"/>
    </g>
  </g>
</svg>